<?xml version="1.0" encoding="UTF-8"?>
<svg width="318px" height="118px" viewBox="0 0 318 118" version="1.1" xmlns="http://www.w3.org/2000/svg" xmlns:xlink="http://www.w3.org/1999/xlink">
    <!-- Generator: Sketch 43.1 (39012) - http://www.bohemiancoding.com/sketch -->
    <title>Untitled 18</title>
    <desc>Created with Sketch.</desc>
    <defs></defs>
    <g id="Page-1" stroke="none" stroke-width="1" fill="none" fill-rule="evenodd">
        <polygon id="Shape" fill="#C7C8C7" points="0.449219 99.976562 317.164062 99.976562 317.164062 84.886719 0.449219 84.886719"></polygon>
        <path d="M63.089844,37.320312 L61.652344,36.121094 L60.457031,34.925781 L59.738281,33.246094 L59.5,32.050781 L59.738281,30.855469 L59.976562,29.65625 L60.457031,28.699219 L61.175781,27.5 L61.894531,26.304688 L62.851562,25.34375 L63.808594,24.148438 L65.003906,22.953125 L66.441406,21.753906 L67.878906,21.035156 L69.316406,20.078125 L70.992188,19.597656 L72.429688,18.878906 L74.105469,18.164062 L75.300781,17.921875 L76.976562,17.921875 L77.21875,17.203125 L78.414062,16.007812 L79.371094,15.527344 L80.332031,15.050781 L81.527344,14.570312 L82.964844,14.089844 L84.160156,13.613281 L85.839844,12.894531 L87.515625,12.65625 L88.949219,12.414062 L90.628906,11.9375 L92.304688,11.9375 L94.21875,11.695312 L95.894531,11.457031 L97.8125,11.457031 L99.246094,11.9375 L100.683594,12.65625 L101.640625,13.371094 L102.359375,14.332031 L101.164062,18.878906 L100.207031,22.710938 L98.769531,25.34375 L97.8125,27.023438 L97.332031,27.980469 L97.09375,28.9375 L96.375,29.65625 L95.65625,30.613281 L94.21875,32.050781 L92.304688,33.488281 L91.105469,34.207031 L90.148438,34.925781 L88.949219,35.402344 L87.992188,36.121094 L86.558594,36.359375 L85.597656,36.839844 L84.160156,37.320312 L83.203125,37.796875 L81.769531,38.277344 L80.808594,38.515625 L79.851562,38.996094 L78.894531,39.234375 L78.175781,39.234375 L77.695312,39.472656 L77.21875,39.714844 L75.300781,39.714844 L74.585938,39.953125 L73.148438,39.953125 L72.1875,40.191406 L68.597656,40.191406 L67.160156,39.953125 L65.964844,39.714844 L65.003906,39.472656 L64.046875,39.234375 L63.089844,38.753906 L62.609375,38.277344 L62.371094,37.796875 L62.609375,37.796875 L62.851562,37.558594 L63.089844,37.320312 Z M22.382812,105.804688 L21.902344,105.324219 L21.664062,104.128906 L21.664062,95.507812 L22.144531,94.070312 L22.382812,93.113281 L22.382812,92.394531 L22.621094,92.152344 L23.101562,92.152344 L23.578125,91.914062 L24.296875,91.195312 L25.015625,90.71875 L25.972656,90 L27.171875,89.28125 L28.367188,88.5625 L29.328125,87.84375 L30.285156,87.125 L31.480469,86.648438 L32.679688,85.929688 L33.636719,85.6875 L34.59375,85.210938 L35.554688,84.730469 L36.269531,84.730469 L36.511719,84.011719 L36.988281,83.535156 L37.707031,83.054688 L38.664062,82.335938 L39.625,81.617188 L40.820312,80.421875 L42.257812,79.703125 L43.695312,78.503906 L45.371094,77.546875 L46.808594,76.828125 L48.242188,75.871094 L49.679688,75.152344 L50.878906,74.433594 L51.835938,73.957031 L52.792969,73.714844 L53.75,73.476562 L54.710938,72.277344 L55.425781,71.5625 L56.386719,70.84375 L58.300781,69.40625 L59.019531,68.925781 L59.976562,68.6875 L60.933594,68.207031 L64.285156,68.449219 L67.160156,68.6875 L70.035156,69.167969 L72.667969,69.644531 L75.300781,70.601562 L77.457031,71.320312 L79.371094,72.519531 L81.050781,73.714844 L81.527344,74.914062 L82.007812,77.070312 L82.484375,79.703125 L83.203125,83.054688 L83.921875,86.648438 L85.121094,90 L86.316406,92.871094 L87.753906,95.265625 L88.472656,96.464844 L90.148438,98.140625 L91.34375,98.859375 L92.78125,99.335938 L94.21875,99.816406 L95.894531,100.054688 L97.8125,100.296875 L99.007812,100.054688 L100.207031,99.816406 L100.925781,99.578125 L101.640625,99.578125 L103.078125,99.335938 L104.277344,98.859375 L105.714844,98.621094 L106.671875,98.140625 L107.628906,98.140625 L108.347656,97.902344 L109.066406,97.660156 L109.542969,97.660156 L110.023438,96.945312 L111.460938,95.984375 L112.179688,95.507812 L113.136719,95.027344 L113.855469,94.550781 L115.769531,93.589844 L116.488281,93.351562 L117.6875,92.871094 L118.40625,92.394531 L119.363281,92.152344 L120.082031,92.152344 L120.800781,91.914062 L122.234375,91.914062 L122.234375,94.789062 L121.996094,96.226562 L121.757812,97.660156 L121.757812,103.886719 L120.800781,104.84375 L119.363281,106.042969 L117.925781,107 L116.25,108.199219 L114.574219,108.917969 L112.65625,109.875 L110.503906,110.832031 L108.347656,111.789062 L105.953125,112.507812 L103.558594,113.464844 L100.925781,114.183594 L98.050781,114.902344 L94.9375,115.382812 L91.824219,115.859375 L88.472656,116.578125 L84.878906,117.058594 L83.445312,117.058594 L81.769531,116.578125 L80.808594,116.339844 L79.851562,116.339844 L78.894531,116.101562 L78.414062,116.101562 L77.9375,115.859375 L77.457031,115.859375 L76.019531,115.621094 L74.585938,115.140625 L73.148438,114.664062 L71.710938,114.183594 L70.753906,113.464844 L69.316406,112.988281 L68.359375,112.027344 L67.640625,111.789062 L66.683594,111.070312 L65.722656,110.351562 L65.003906,109.632812 L64.285156,108.917969 L63.570312,108.199219 L63.089844,107.480469 L62.609375,107 L62.371094,106.28125 L61.414062,104.84375 L60.695312,103.886719 L60.214844,102.929688 L59.5,101.972656 L59.019531,101.734375 L58.539062,101.253906 L58.0625,100.773438 L57.582031,100.296875 L56.144531,98.859375 L55.425781,97.902344 L54.230469,96.945312 L53.511719,95.746094 L52.554688,95.027344 L51.835938,94.308594 L50.878906,93.589844 L50.160156,93.113281 L49.203125,92.871094 L48.242188,92.394531 L46.808594,92.394531 L45.847656,92.632812 L45.128906,92.871094 L44.171875,93.351562 L42.976562,93.832031 L42.257812,94.308594 L40.820312,95.027344 L39.625,95.746094 L38.425781,96.464844 L36.988281,97.421875 L36.03125,98.140625 L34.835938,98.859375 L33.636719,99.578125 L32.441406,100.296875 L31.480469,101.015625 L30.285156,101.492188 L29.804688,101.734375 L28.847656,101.734375 L28.128906,102.210938 L27.410156,102.449219 L26.691406,102.691406 L25.972656,102.929688 L25.496094,103.410156 L24.777344,103.886719 L22.863281,105.324219 L22.382812,105.804688 Z" id="Shape" fill="#6C6D6B"></path>
        <path d="M46.542969,26.289062 L45.105469,25.09375 L43.191406,22.21875 L43.191406,19.824219 L43.429688,18.628906 L44.148438,17.671875 L44.628906,16.234375 L45.347656,15.273438 L46.304688,14.078125 L47.261719,12.878906 L48.460938,11.921875 L50.136719,10.726562 L51.332031,9.769531 L53.007812,9.050781 L54.445312,8.332031 L56.121094,7.613281 L57.558594,7.132812 L60.433594,6.65625 L60.910156,6.175781 L61.390625,5.457031 L62.109375,4.980469 L62.828125,4.5 L64.023438,3.78125 L64.980469,3.542969 L66.417969,3.0625 L67.855469,2.34375 L69.292969,1.867188 L70.96875,1.625 L72.644531,1.148438 L74.320312,0.90625 L75.996094,0.667969 L77.671875,0.667969 L79.347656,0.429688 L81.265625,0.429688 L82.703125,0.90625 L84.136719,1.625 L85.097656,2.34375 L85.8125,3.0625 L84.855469,7.851562 L83.660156,11.683594 L82.222656,14.078125 L80.785156,16.953125 L80.546875,17.671875 L79.828125,18.628906 L79.347656,19.347656 L78.628906,20.304688 L76.714844,21.742188 L75.757812,22.21875 L74.800781,22.9375 L73.601562,23.65625 L72.644531,24.375 L71.445312,24.851562 L70.25,25.332031 L69.050781,25.8125 L67.855469,26.289062 L66.65625,26.53125 L65.460938,27.246094 L64.261719,27.488281 L62.347656,27.964844 L61.867188,28.207031 L61.390625,28.445312 L60.910156,28.683594 L58.996094,28.683594 L58.277344,28.925781 L50.613281,28.925781 L49.417969,28.683594 L48.460938,28.445312 L47.5,27.964844 L46.78125,27.488281 L46.304688,27.246094 L45.824219,26.53125 L46.304688,26.53125 L46.542969,26.289062 Z M5.835938,94.773438 L5.597656,94.054688 L5.359375,93.097656 L5.359375,84.476562 L5.597656,83.042969 L5.835938,82.082031 L5.835938,81.363281 L6.316406,81.125 L6.554688,80.886719 L7.03125,80.648438 L8.46875,79.6875 L9.667969,78.972656 L10.625,78.253906 L11.824219,77.535156 L12.78125,76.816406 L13.976562,76.097656 L15.175781,75.617188 L16.132812,74.898438 L17.089844,74.660156 L18.046875,74.179688 L19.007812,73.703125 L19.964844,73.464844 L20.203125,72.984375 L20.683594,72.503906 L21.402344,72.027344 L22.117188,71.308594 L23.316406,70.589844 L24.273438,69.390625 L27.148438,67.476562 L28.824219,66.28125 L30.261719,65.5625 L31.9375,64.84375 L33.375,64.125 L34.332031,63.40625 L35.527344,62.6875 L36.246094,62.449219 L37.207031,62.449219 L38.164062,61.25 L38.882812,60.53125 L39.839844,59.8125 L41.035156,58.855469 L41.753906,58.378906 L42.710938,57.898438 L43.429688,57.660156 L44.390625,57.179688 L47.742188,57.417969 L50.613281,57.660156 L53.488281,58.136719 L56.121094,58.617188 L58.753906,59.335938 L60.910156,60.292969 L62.828125,61.488281 L64.503906,62.6875 L64.980469,63.886719 L65.460938,65.800781 L66.179688,68.675781 L66.65625,72.027344 L67.375,75.617188 L68.574219,78.730469 L69.769531,81.605469 L71.207031,84.238281 L71.925781,85.195312 L72.644531,86.15625 L73.601562,86.871094 L75.039062,87.589844 L76.238281,88.308594 L77.914062,88.550781 L79.347656,89.027344 L81.265625,89.265625 L82.460938,89.027344 L83.660156,88.550781 L85.097656,88.550781 L86.773438,88.308594 L87.96875,87.832031 L89.167969,87.589844 L90.363281,87.113281 L91.082031,86.871094 L91.800781,86.871094 L92.519531,86.632812 L92.996094,86.394531 L93.714844,85.914062 L94.195312,85.4375 L95.632812,84.476562 L96.589844,83.761719 L97.308594,83.519531 L98.265625,83.042969 L99.222656,82.5625 L100.183594,82.324219 L101.140625,81.605469 L102.097656,81.363281 L103.535156,80.886719 L104.253906,80.886719 L104.96875,80.648438 L105.929688,80.648438 L105.929688,83.519531 L105.449219,85.195312 L105.210938,86.394531 L105.210938,92.621094 L104.253906,93.816406 L102.816406,95.015625 L99.941406,96.929688 L98.027344,97.886719 L96.109375,98.84375 L94.195312,99.804688 L91.800781,100.523438 L89.644531,101.480469 L84.378906,102.917969 L81.503906,103.636719 L78.390625,104.351562 L75.277344,104.832031 L71.925781,105.550781 L68.335938,106.027344 L65.460938,105.550781 L64.261719,105.3125 L63.304688,105.070312 L62.109375,105.070312 L61.390625,104.832031 L61.152344,104.832031 L59.472656,104.59375 L58.277344,103.875 L56.601562,103.394531 L55.402344,102.917969 L54.207031,102.199219 L53.007812,101.71875 L52.050781,101 L51.09375,100.523438 L50.136719,100.042969 L49.179688,99.324219 L47.742188,97.886719 L47.261719,97.167969 L46.542969,96.449219 L46.304688,95.734375 L45.824219,95.253906 L44.867188,93.816406 L44.390625,92.621094 L43.671875,91.664062 L43.191406,90.945312 L42.710938,90.703125 L41.992188,90.226562 L41.515625,89.746094 L41.035156,89.265625 L40.316406,88.550781 L39.597656,87.589844 L38.882812,86.871094 L37.921875,85.675781 L36.007812,83.761719 L35.289062,83.28125 L34.570312,82.5625 L33.613281,82.082031 L32.65625,81.605469 L31.9375,81.363281 L30.261719,81.363281 L29.542969,81.605469 L28.585938,81.84375 L27.625,82.324219 L26.429688,82.800781 L25.710938,83.28125 L24.273438,83.761719 L23.316406,84.476562 L22.117188,85.4375 L20.683594,86.394531 L19.484375,87.113281 L18.289062,87.832031 L17.089844,88.550781 L15.894531,89.265625 L14.933594,89.746094 L13.976562,90.464844 L13.257812,90.464844 L12.300781,90.703125 L11.582031,91.183594 L11.105469,91.183594 L9.667969,91.902344 L8.949219,92.378906 L8.46875,92.621094 L7.273438,93.578125 L6.316406,94.296875 L6.074219,94.535156 L5.835938,94.773438 Z" id="Shape" fill="#6C1F26"></path>
        <path d="M193.128906,49.714844 L193.128906,45.707031 C193.839844,45.707031 194.546875,45.472656 195.015625,44.765625 C195.488281,44.058594 195.726562,43.113281 195.726562,41.933594 C195.726562,40.519531 195.488281,39.574219 195.015625,38.867188 C194.78125,38.398438 194.074219,37.925781 193.128906,37.925781 C193.128906,37.925781 193.128906,37.925781 193.128906,38.160156 L193.128906,34.152344 L193.367188,34.152344 C195.960938,34.152344 197.847656,34.625 199.261719,36.039062 C200.675781,37.453125 201.382812,39.105469 201.382812,41.699219 C201.382812,44.058594 200.675781,46.179688 199.261719,47.59375 C197.613281,49.007812 195.726562,49.714844 193.128906,49.714844 Z M193.128906,34.152344 L193.128906,38.160156 C192.1875,38.160156 191.480469,38.398438 191.246094,39.105469 C190.773438,39.8125 190.535156,40.753906 190.535156,42.171875 C190.535156,43.347656 190.773438,44.292969 191.007812,44.765625 C191.480469,45.472656 192.1875,45.707031 192.894531,45.707031 L193.128906,45.707031 L193.128906,49.714844 L192.894531,49.714844 C190.300781,49.714844 188.179688,49.007812 186.765625,47.828125 C185.347656,46.414062 184.640625,44.765625 184.640625,42.171875 C184.640625,39.574219 185.585938,37.691406 187,36.273438 C188.414062,34.859375 190.535156,34.152344 193.128906,34.152344 Z M133.230469,49.714844 L133.230469,45.707031 L134.882812,45.707031 L136.769531,45.707031 C137.476562,45.707031 138.183594,45.472656 138.890625,45.234375 L138.183594,49.246094 C137.242188,49.246094 136.296875,49.480469 135.589844,49.714844 L133.230469,49.714844 Z M133.230469,42.878906 L133.230469,40.046875 L135.117188,40.046875 L135.117188,39.8125 C135.117188,39.105469 134.882812,38.398438 134.644531,38.160156 C134.410156,37.691406 133.9375,37.453125 133.46875,37.453125 L133.230469,37.453125 L133.230469,34.152344 L133.703125,34.152344 C135.824219,34.152344 137.476562,34.625 138.65625,35.566406 C139.835938,36.511719 140.304688,38.160156 140.304688,40.046875 L140.304688,41.226562 C140.304688,41.933594 140.070312,42.40625 140.070312,42.878906 L133.230469,42.878906 Z M142.191406,49.246094 C142.429688,47.121094 142.664062,44.765625 142.664062,42.171875 C142.898438,39.8125 142.898438,37.21875 142.898438,34.386719 L148.324219,34.386719 L148.324219,36.273438 C149.03125,35.566406 149.738281,34.859375 150.445312,34.625 C151.390625,34.152344 152.332031,34.152344 153.511719,34.152344 C155.398438,34.152344 156.8125,34.386719 157.757812,35.09375 C158.464844,36.039062 158.9375,37.21875 158.9375,38.867188 C158.9375,39.574219 158.9375,40.992188 158.699219,43.347656 C158.699219,45.707031 158.699219,47.59375 158.464844,49.246094 L153.039062,49.246094 C153.039062,47.828125 153.277344,46.414062 153.277344,45.234375 L153.277344,42.171875 C153.277344,40.753906 153.277344,39.8125 152.804688,39.105469 C152.570312,38.632812 152.097656,38.398438 151.390625,38.398438 C149.976562,38.398438 149.265625,39.105469 148.796875,40.519531 C148.324219,41.699219 148.089844,44.765625 147.851562,49.246094 L142.191406,49.246094 Z M167.898438,42.171875 L167.898438,42.640625 L167.898438,43.113281 C167.898438,44.058594 167.898438,44.527344 168.371094,45 C168.605469,45.234375 169.078125,45.472656 169.546875,45.472656 L170.492188,45.472656 C170.726562,45.472656 170.726562,45.234375 170.964844,45.234375 L170.492188,49.480469 C170.019531,49.480469 169.546875,49.714844 169.078125,49.714844 L167.425781,49.714844 C165.773438,49.714844 164.359375,49.480469 163.652344,48.539062 C162.710938,47.828125 162.238281,46.652344 162.238281,45 L162.238281,44.527344 L162.710938,38.398438 L160.351562,38.398438 L160.585938,34.386719 L162.945312,34.386719 L163.179688,32.03125 L168.371094,30.851562 L168.132812,34.386719 L171.433594,34.386719 L171.199219,38.398438 L168.132812,38.398438 L167.898438,42.171875 Z M183.460938,38.632812 L183.226562,38.632812 L182.519531,38.632812 C181.574219,38.632812 180.867188,38.867188 180.160156,39.105469 C179.6875,39.574219 179.21875,40.046875 178.980469,40.992188 C178.746094,41.460938 178.746094,42.171875 178.511719,43.113281 C178.511719,44.292969 178.511719,46.179688 178.273438,49.246094 L172.613281,49.246094 C172.851562,47.121094 173.085938,45 173.085938,42.640625 C173.320312,40.519531 173.320312,38.160156 173.320312,36.039062 L173.320312,34.386719 L178.273438,34.386719 L178.273438,36.511719 C178.746094,35.804688 179.21875,35.09375 179.925781,34.625 C180.632812,34.386719 181.339844,34.152344 182.28125,34.152344 L183.226562,34.152344 L183.460938,38.632812 Z M123.5625,34.625 C122.617188,34.386719 121.910156,34.152344 121.203125,34.152344 C120.261719,33.917969 119.554688,33.917969 118.847656,33.917969 C116.722656,33.917969 115.308594,34.386719 114.128906,35.566406 C112.949219,36.511719 112.480469,38.160156 112.480469,40.046875 C112.480469,41.699219 112.949219,43.113281 113.894531,44.058594 C114.835938,44.765625 116.488281,45.234375 118.609375,45.234375 L120.730469,45.234375 C121.675781,45 122.382812,45 123.089844,44.765625 L122.617188,49.246094 C121.675781,49.480469 120.730469,49.480469 119.789062,49.714844 L117.195312,49.714844 C113.65625,49.714844 110.828125,49.007812 108.941406,47.359375 C107.054688,45.707031 106.113281,43.347656 106.113281,40.046875 C106.113281,36.746094 107.054688,34.152344 109.175781,32.265625 C111.300781,30.613281 114.128906,29.671875 117.667969,29.671875 L120.496094,29.671875 C121.441406,29.90625 122.382812,29.90625 123.328125,30.144531 L123.5625,34.625 Z M133.230469,34.152344 L133.230469,37.453125 C132.757812,37.453125 132.289062,37.691406 132.050781,38.160156 C131.582031,38.632812 131.34375,39.105469 131.34375,40.046875 L133.230469,40.046875 L133.230469,42.878906 L131.109375,42.878906 L131.109375,43.113281 L131.109375,43.347656 C131.109375,44.292969 131.582031,44.765625 132.050781,45.234375 C132.289062,45.472656 132.757812,45.472656 133.230469,45.707031 L133.230469,49.714844 L132.996094,49.714844 C130.402344,49.714844 128.515625,49.246094 127.335938,47.828125 C125.921875,46.652344 125.214844,45 125.214844,42.640625 C125.214844,39.8125 125.921875,37.925781 127.570312,36.273438 C128.75,34.859375 130.636719,34.152344 133.230469,34.152344 L133.230469,34.152344 Z" id="Shape" fill="#6C1F26"></path>
        <path d="M211.511719,87.832031 L211.511719,88.777344 L211.511719,89.71875 L211.277344,93.257812 C211.277344,93.257812 211.277344,93.257812 211.277344,93.492188 C211.277344,93.492188 211.277344,93.492188 211.277344,93.730469 C211.277344,94.199219 211.277344,94.4375 211.511719,94.671875 C211.75,94.90625 212.222656,94.90625 212.691406,94.90625 C213.164062,94.90625 213.636719,94.90625 213.871094,94.671875 C214.109375,94.4375 214.109375,93.964844 214.34375,93.257812 L214.34375,90.191406 L214.34375,89.246094 L214.34375,88.539062 L214.34375,88.070312 L214.34375,87.832031 L217.410156,87.832031 C217.171875,88.070312 217.171875,88.539062 217.171875,88.777344 L217.171875,89.71875 L216.9375,92.785156 L216.9375,93.492188 C216.9375,94.4375 216.703125,94.90625 216.703125,95.378906 C216.464844,95.851562 215.992188,96.324219 215.285156,96.558594 C214.578125,97.03125 213.636719,97.03125 212.457031,97.03125 C211.277344,97.03125 210.335938,96.792969 209.625,96.324219 C208.917969,95.851562 208.449219,95.144531 208.449219,94.4375 C208.449219,94.199219 208.683594,93.257812 208.683594,91.84375 L208.683594,87.832031 L211.511719,87.832031 Z M240.992188,96.792969 C240.992188,95.851562 241.226562,94.4375 241.226562,93.019531 C241.226562,91.371094 241.464844,89.71875 241.464844,87.832031 L248.066406,87.832031 L248.066406,89.957031 L247.125,89.957031 L246.414062,89.957031 L244.058594,89.957031 L244.058594,90.664062 L244.058594,91.132812 L244.058594,91.371094 L245.945312,91.371094 L246.886719,91.371094 L247.359375,91.371094 L247.359375,93.492188 C247.125,93.257812 246.886719,93.257812 246.886719,93.257812 L245.945312,93.257812 L244.058594,93.257812 L243.820312,95.144531 L243.820312,96.792969 L240.992188,96.792969 Z M275.894531,87.832031 L277.308594,87.832031 C277.542969,88.070312 277.78125,88.070312 278.015625,88.070312 C278.253906,88.304688 278.488281,88.539062 278.722656,89.011719 C278.960938,89.246094 278.960938,89.71875 278.960938,90.191406 C278.960938,91.132812 278.722656,92.078125 278.253906,92.550781 C277.542969,93.257812 276.835938,93.492188 275.894531,93.492188 L275.660156,93.492188 L275.421875,93.492188 L274.714844,91.605469 C275.1875,91.605469 275.660156,91.605469 275.894531,91.371094 C276.128906,91.371094 276.367188,90.898438 276.367188,90.664062 C276.367188,90.191406 276.128906,89.957031 276.128906,89.957031 C275.894531,89.71875 275.660156,89.71875 275.1875,89.71875 L274.714844,89.71875 L274.480469,89.71875 L274.242188,93.964844 L274.242188,95.378906 L274.242188,96.792969 L271.414062,96.792969 C271.414062,95.851562 271.648438,94.4375 271.648438,92.785156 C271.886719,91.371094 271.886719,89.71875 271.886719,87.832031 L275.894531,87.832031 Z M302.542969,96.792969 C302.542969,95.851562 302.777344,94.4375 302.777344,93.019531 C302.777344,91.371094 302.777344,89.71875 303.015625,87.832031 L310.089844,87.832031 L310.089844,89.957031 L309.144531,89.957031 L308.4375,89.957031 L305.609375,89.957031 L305.609375,90.664062 L305.609375,91.132812 L305.609375,91.371094 L307.964844,91.371094 L308.671875,91.371094 L309.382812,91.371094 L309.382812,93.492188 C309.144531,93.257812 308.910156,93.257812 308.910156,93.257812 L307.964844,93.257812 L305.371094,93.257812 L305.371094,93.964844 L305.371094,94.4375 L305.371094,94.671875 C305.371094,94.671875 305.371094,94.671875 305.371094,94.90625 L306.316406,94.90625 L307.496094,94.90625 L308.671875,94.90625 L309.851562,94.90625 L309.851562,96.792969 L302.542969,96.792969 Z" id="Shape" fill="#6C1F26"></path>
        <path d="M229.199219,90.898438 C229.90625,90.898438 230.378906,91.605469 230.378906,92.3125 C230.378906,93.019531 229.90625,93.730469 229.199219,93.730469 C228.257812,93.730469 227.785156,93.019531 227.785156,92.3125 C227.785156,91.605469 228.257812,90.898438 229.199219,90.898438" id="Shape" fill="#6C1F26"></path>
        <path d="M258.207031,90.898438 C258.914062,90.898438 259.386719,91.605469 259.386719,92.3125 C259.386719,93.019531 258.914062,93.730469 258.207031,93.730469 C257.5,93.730469 256.792969,93.019531 256.792969,92.3125 C256.792969,91.605469 257.5,90.898438 258.207031,90.898438" id="Shape" fill="#6C1F26"></path>
        <path d="M290.988281,90.898438 C291.695312,90.898438 292.402344,91.605469 292.402344,92.3125 C292.402344,93.019531 291.695312,93.730469 290.988281,93.730469 C290.277344,93.730469 289.570312,93.019531 289.570312,92.3125 C289.570312,91.605469 290.277344,90.898438 290.988281,90.898438" id="Shape" fill="#6C1F26"></path>
        <path d="M180.011719,80.332031 L180.011719,75.617188 C180.957031,75.617188 181.664062,75.144531 182.136719,74.4375 C182.84375,73.496094 183.078125,72.316406 183.078125,70.902344 C183.078125,69.25 182.84375,68.070312 182.371094,67.363281 C181.898438,66.65625 181.191406,66.183594 180.011719,66.183594 L180.011719,61.46875 L180.25,61.46875 C183.316406,61.46875 185.671875,62.410156 187.558594,63.828125 C189.210938,65.476562 189.917969,67.601562 189.917969,70.429688 C189.917969,73.496094 188.976562,76.089844 187.324219,77.738281 C185.4375,79.390625 183.078125,80.332031 180.011719,80.332031 Z M205.246094,67.128906 L204.773438,67.128906 L204.304688,67.128906 C203.125,67.128906 202.179688,67.363281 201.472656,67.601562 C200.765625,68.070312 200.292969,68.777344 199.824219,69.722656 C199.585938,70.429688 199.585938,71.371094 199.351562,72.550781 C199.351562,73.730469 199.113281,76.089844 199.113281,79.863281 L192.277344,79.863281 C192.511719,77.269531 192.746094,74.4375 192.746094,71.84375 C192.984375,69.25 192.984375,66.421875 192.984375,63.828125 L192.984375,61.941406 L199.113281,61.941406 L198.878906,64.535156 C199.585938,63.589844 200.292969,62.648438 201,62.175781 C201.945312,61.703125 202.886719,61.46875 204.066406,61.46875 C204.066406,61.46875 204.539062,61.46875 205.011719,61.703125 L205.246094,67.128906 Z M206.898438,79.863281 C207.132812,77.03125 207.367188,74.203125 207.605469,71.371094 C207.839844,68.308594 207.839844,65.242188 207.839844,61.941406 L214.445312,61.941406 L214.445312,64.296875 C215.152344,63.355469 215.859375,62.648438 216.566406,62.175781 C217.507812,61.703125 218.453125,61.46875 219.632812,61.46875 C221.046875,61.46875 222.226562,61.703125 223.167969,62.175781 C224.113281,62.882812 224.585938,63.589844 225.054688,64.535156 C225.761719,63.355469 226.472656,62.648438 227.179688,62.175781 C228.121094,61.703125 229.066406,61.46875 230.246094,61.46875 C232.367188,61.46875 233.78125,61.941406 234.726562,62.882812 C235.667969,63.828125 236.140625,65.242188 236.140625,67.363281 C236.140625,68.070312 236.140625,69.722656 235.902344,72.550781 C235.667969,75.382812 235.667969,77.738281 235.667969,79.863281 L228.828125,79.863281 C229.066406,78.449219 229.066406,77.03125 229.300781,75.617188 L229.300781,71.136719 C229.300781,69.484375 229.300781,68.308594 229.066406,67.601562 C228.59375,67.128906 228.121094,66.65625 227.648438,66.65625 C226.472656,66.65625 225.527344,67.601562 225.292969,69.25 C224.820312,71.136719 224.585938,74.203125 224.585938,78.917969 L224.585938,79.863281 L217.980469,79.863281 C218.21875,78.449219 218.21875,76.796875 218.453125,75.382812 L218.453125,71.136719 C218.453125,69.484375 218.453125,68.308594 217.980469,67.601562 C217.746094,67.128906 217.273438,66.65625 216.566406,66.65625 C215.621094,66.65625 214.679688,67.601562 214.207031,69.25 C213.972656,71.136719 213.734375,74.203125 213.734375,78.917969 L213.734375,79.863281 L206.898438,79.863281 Z M246.988281,80.097656 C246.515625,80.097656 245.808594,80.097656 245.574219,80.332031 L244.15625,80.332031 C242.269531,80.332031 240.855469,79.863281 239.914062,78.917969 C238.96875,77.976562 238.261719,76.796875 238.261719,75.382812 C238.261719,73.730469 238.96875,72.550781 239.914062,71.609375 C240.855469,70.664062 242.507812,69.957031 244.628906,69.25 L245.574219,69.25 C248.167969,68.542969 249.582031,67.835938 249.582031,67.128906 C249.582031,66.890625 249.347656,66.421875 249.109375,66.421875 C248.875,66.183594 248.167969,65.949219 247.460938,65.949219 C246.515625,65.949219 245.335938,66.183594 244.394531,66.421875 C243.214844,66.65625 242.035156,67.128906 240.855469,67.601562 L241.800781,62.410156 C242.742188,62.175781 243.921875,61.941406 245.101562,61.703125 C246.042969,61.46875 247.460938,61.46875 248.640625,61.46875 C251.234375,61.46875 253.121094,61.941406 254.296875,62.648438 C255.476562,63.355469 256.183594,64.535156 256.183594,66.183594 L256.183594,66.890625 L256.183594,68.070312 L255.714844,76.796875 L255.714844,77.738281 L255.714844,79.863281 L248.875,79.863281 C248.875,78.683594 249.109375,77.738281 249.109375,77.03125 L249.109375,75.617188 L249.347656,72.316406 C249.109375,72.550781 248.875,72.550781 248.640625,72.550781 C248.167969,72.789062 247.929688,72.789062 247.460938,73.023438 L246.042969,73.257812 C245.335938,73.496094 244.867188,73.730469 244.628906,73.964844 C244.394531,74.203125 244.15625,74.675781 244.15625,75.144531 C244.15625,75.617188 244.15625,75.851562 244.628906,76.089844 C244.867188,76.324219 245.335938,76.5625 245.808594,76.5625 C246.042969,76.5625 246.28125,76.5625 246.753906,76.324219 C246.988281,76.324219 247.460938,76.324219 247.929688,76.089844 L246.988281,80.097656 Z M254.296875,53.214844 L248.875,59.582031 L246.515625,59.582031 L249.816406,53.214844 L254.296875,53.214844 Z M266.796875,71.371094 L266.796875,71.609375 L266.796875,72.316406 C266.796875,73.496094 266.796875,74.203125 267.269531,74.675781 C267.503906,75.144531 267.976562,75.144531 268.917969,75.144531 L269.863281,75.144531 L270.335938,75.144531 L270.097656,80.097656 C269.390625,80.097656 268.917969,80.332031 268.210938,80.332031 L266.324219,80.332031 C264.203125,80.332031 262.550781,79.863281 261.609375,78.917969 C260.664062,77.976562 259.957031,76.5625 259.957031,74.675781 L259.957031,74.203125 L260.429688,66.65625 L257.835938,66.65625 L258.070312,61.941406 L260.902344,61.941406 L261.136719,59.109375 L267.269531,57.695312 L267.03125,61.941406 L271.042969,61.941406 L270.804688,66.65625 L267.03125,66.65625 L266.796875,71.371094 Z M273.398438,60.761719 L273.636719,56.75 L280.472656,56.75 L280.472656,60.761719 L273.398438,60.761719 Z M280.472656,62.410156 C280.003906,64.769531 279.765625,67.601562 279.765625,70.429688 C279.53125,73.257812 279.53125,76.324219 279.53125,79.863281 L272.457031,79.863281 C272.691406,77.269531 272.929688,74.4375 272.929688,71.371094 C273.164062,68.542969 273.164062,65.476562 273.164062,62.410156 L280.472656,62.410156 Z M296.511719,79.863281 C295.566406,80.097656 294.625,80.097656 293.917969,80.332031 L291.324219,80.332031 C288.492188,80.332031 286.371094,79.625 284.957031,77.976562 C283.304688,76.5625 282.597656,74.4375 282.597656,71.609375 C282.597656,68.308594 283.539062,65.949219 285.191406,64.296875 C287.078125,62.410156 289.4375,61.46875 292.5,61.46875 C293.445312,61.46875 294.152344,61.703125 294.859375,61.703125 C295.804688,61.941406 296.511719,61.941406 297.453125,62.175781 L297.691406,67.601562 C296.511719,67.128906 295.804688,67.128906 295.332031,66.890625 L293.917969,66.890625 C292.5,66.890625 291.558594,67.128906 290.851562,68.070312 C289.90625,68.777344 289.671875,69.957031 289.671875,71.371094 C289.671875,72.550781 289.90625,73.496094 290.617188,73.964844 C291.324219,74.675781 292.265625,74.910156 293.445312,74.910156 L295.332031,74.910156 C296.039062,74.675781 296.746094,74.675781 297.453125,74.4375 L296.511719,79.863281 Z M307.832031,80.097656 C307.359375,80.097656 306.886719,80.097656 306.414062,80.332031 L305,80.332031 C303.351562,80.332031 301.933594,79.863281 300.753906,78.917969 C299.8125,77.976562 299.339844,76.796875 299.339844,75.382812 C299.339844,73.730469 299.8125,72.550781 300.753906,71.609375 C301.699219,70.664062 303.351562,69.957031 305.707031,69.25 L306.652344,69.25 C309.246094,68.542969 310.425781,67.835938 310.425781,67.128906 C310.425781,66.890625 310.425781,66.421875 309.953125,66.421875 C309.71875,66.183594 309.246094,65.949219 308.539062,65.949219 C307.359375,65.949219 306.414062,66.183594 305.238281,66.421875 C304.058594,66.65625 302.878906,67.128906 301.933594,67.601562 L302.640625,62.410156 C303.585938,62.175781 304.765625,61.941406 305.945312,61.703125 C307.125,61.46875 308.300781,61.46875 309.480469,61.46875 C312.074219,61.46875 313.960938,61.941406 315.140625,62.648438 C316.554688,63.355469 317.027344,64.535156 317.027344,66.183594 L317.027344,66.890625 L317.027344,68.070312 L316.554688,76.796875 L316.554688,77.738281 L316.554688,79.863281 L309.71875,79.863281 C309.953125,78.683594 309.953125,77.738281 309.953125,77.03125 C309.953125,76.324219 309.953125,75.851562 310.1875,75.617188 L310.1875,72.316406 C309.953125,72.550781 309.71875,72.550781 309.480469,72.550781 C309.246094,72.789062 308.773438,72.789062 308.300781,73.023438 L306.886719,73.257812 C306.414062,73.496094 305.945312,73.730469 305.472656,73.964844 C305.238281,74.203125 305,74.675781 305,75.144531 C305,75.617188 305.238281,75.851562 305.472656,76.089844 C305.707031,76.324219 306.179688,76.5625 306.652344,76.5625 C306.886719,76.5625 307.125,76.5625 307.59375,76.324219 C307.832031,76.324219 308.300781,76.324219 308.773438,76.089844 L307.832031,80.097656 Z M180.011719,61.46875 L180.011719,66.183594 C178.835938,66.421875 178.125,66.65625 177.65625,67.601562 C177.183594,68.308594 176.710938,69.484375 176.710938,71.136719 C176.710938,72.789062 177.183594,73.730469 177.65625,74.4375 C178.125,75.144531 178.835938,75.617188 179.777344,75.617188 L180.011719,75.617188 L180.011719,80.332031 L179.777344,80.332031 C176.476562,80.332031 174.117188,79.625 172.46875,77.976562 C171.050781,76.796875 170.34375,75.144531 170.109375,73.257812 L170.109375,69.484375 C170.34375,67.128906 171.289062,65.476562 172.703125,64.0625 C174.589844,62.410156 176.949219,61.703125 180.011719,61.46875 Z M170.109375,60.289062 L170.109375,57.695312 L170.109375,60.289062 Z M130.253906,79.863281 L122.707031,79.863281 C122.945312,77.03125 123.179688,73.496094 123.414062,69.484375 C123.652344,65.714844 123.886719,61.234375 123.886719,56.75 L131.433594,56.75 C131.199219,57.222656 131.199219,57.929688 131.199219,58.636719 C131.199219,59.109375 130.960938,60.289062 130.960938,61.46875 L130.488281,72.316406 C130.253906,73.257812 130.253906,74.4375 130.253906,75.617188 L130.253906,79.863281 Z M170.109375,57.695312 L170.109375,60.289062 C169.636719,60.054688 169.164062,60.054688 168.695312,60.054688 C168.457031,60.054688 167.988281,59.816406 167.75,59.816406 C166.808594,59.816406 166.335938,60.054688 165.863281,60.523438 C165.394531,60.761719 165.15625,61.46875 165.15625,61.941406 L169.402344,61.941406 L169.164062,66.890625 L165.394531,66.890625 C165.15625,68.777344 165.15625,70.664062 165.15625,72.550781 C165.15625,74.675781 164.921875,77.03125 164.921875,79.863281 L157.847656,79.863281 C158.082031,77.03125 158.316406,74.4375 158.316406,72.550781 C158.554688,70.429688 158.554688,68.777344 158.554688,67.363281 L158.554688,66.890625 L155.960938,66.890625 L156.429688,61.941406 L158.789062,61.941406 C158.789062,59.816406 159.261719,58.402344 160.441406,57.460938 C161.382812,56.515625 163.269531,56.28125 165.628906,56.28125 L167.75,56.28125 C168.457031,56.28125 169.164062,56.515625 169.871094,56.515625 L170.109375,57.695312 Z M170.109375,69.484375 C169.871094,69.957031 169.871094,70.664062 169.871094,71.371094 C169.871094,72.082031 169.871094,72.550781 170.109375,73.257812 L170.109375,69.484375 Z M134.027344,79.863281 C134.261719,77.03125 134.5,74.203125 134.5,71.371094 C134.734375,68.308594 134.734375,65.242188 134.734375,61.941406 L141.339844,61.941406 L141.339844,64.296875 C142.046875,63.355469 142.988281,62.648438 143.933594,62.175781 C144.875,61.703125 146.054688,61.46875 147.46875,61.46875 C149.828125,61.46875 151.476562,61.941406 152.421875,62.882812 C153.601562,63.828125 154.074219,65.242188 154.074219,67.363281 C154.074219,68.070312 154.074219,69.722656 153.835938,72.550781 C153.601562,75.382812 153.601562,77.738281 153.601562,79.863281 L146.761719,79.863281 C146.996094,77.976562 146.996094,76.324219 147.234375,74.910156 L147.234375,71.136719 C147.234375,69.484375 146.996094,68.308594 146.761719,67.601562 C146.289062,67.128906 145.820312,66.65625 144.875,66.65625 C143.460938,66.65625 142.28125,67.601562 141.808594,69.25 C141.101562,70.902344 140.867188,74.4375 140.867188,79.863281 L134.027344,79.863281 Z" id="Shape" fill="#6C1F26"></path>
        <path d="M112.519531,72.644531 L112.519531,69.105469 C112.992188,69.34375 113.460938,69.34375 113.933594,69.34375 L115.585938,69.34375 C116.054688,69.105469 116.527344,69.105469 117,68.871094 L116.527344,71.9375 C115.820312,72.171875 115.113281,72.40625 114.40625,72.40625 C113.699219,72.40625 113.226562,72.644531 112.519531,72.644531 Z M112.519531,66.984375 L112.519531,64.625 L114.167969,64.625 C114.167969,63.917969 113.933594,63.445312 113.699219,63.210938 C113.460938,62.738281 113.226562,62.738281 112.753906,62.738281 L112.519531,62.738281 L112.519531,59.910156 L112.992188,59.910156 C114.640625,59.910156 116.054688,60.378906 117,61.089844 C117.941406,62.03125 118.414062,63.210938 118.414062,64.859375 C118.414062,65.097656 118.414062,65.332031 118.179688,65.804688 L118.179688,66.984375 L112.519531,66.984375 Z M100.019531,63.210938 C99.785156,63.210938 99.550781,62.972656 99.3125,62.972656 L98.839844,62.972656 C98.371094,62.972656 98.132812,62.972656 97.898438,63.210938 L97.898438,60.144531 C97.898438,60.144531 98.132812,59.910156 98.371094,59.910156 C98.605469,59.910156 98.839844,60.144531 99.078125,60.144531 L100.019531,60.144531 L100.019531,58.492188 C100.019531,58.023438 100.257812,57.316406 100.257812,56.605469 L104.738281,56.605469 C104.5,59.671875 104.265625,62.503906 104.03125,65.097656 C104.03125,67.691406 103.792969,70.050781 103.792969,72.171875 L99.550781,72.171875 L99.550781,71.464844 C99.078125,71.9375 98.605469,72.171875 98.132812,72.171875 L97.898438,72.40625 L97.898438,69.34375 C98.371094,69.105469 98.839844,68.871094 99.078125,68.632812 C99.550781,67.925781 99.785156,67.21875 99.785156,66.277344 L100.019531,63.210938 Z M112.519531,59.910156 L112.519531,62.738281 C112.285156,62.738281 111.8125,62.972656 111.574219,63.210938 C111.339844,63.683594 111.105469,64.152344 111.105469,64.625 L112.519531,64.625 L112.519531,66.984375 L111.105469,66.984375 L111.105469,67.21875 C111.105469,67.21875 111.105469,67.21875 111.105469,67.457031 C111.105469,68.164062 111.339844,68.632812 111.8125,68.871094 C111.8125,69.105469 112.285156,69.105469 112.519531,69.105469 L112.519531,72.644531 C110.398438,72.644531 108.980469,71.9375 107.804688,70.992188 C106.859375,70.050781 106.152344,68.632812 106.152344,66.746094 C106.152344,64.625 106.859375,62.972656 108.039062,61.796875 C109.21875,60.617188 110.632812,60.144531 112.519531,59.910156 Z M97.898438,63.210938 C97.191406,63.210938 96.953125,63.683594 96.484375,63.917969 C96.011719,64.625 95.777344,65.570312 95.777344,66.746094 C95.777344,67.457031 95.777344,68.164062 96.246094,68.632812 C96.484375,69.105469 96.953125,69.34375 97.664062,69.34375 L97.898438,69.34375 L97.898438,72.40625 C97.425781,72.40625 96.71875,72.644531 96.246094,72.644531 C94.597656,72.644531 93.417969,71.9375 92.472656,70.992188 C91.53125,70.050781 91.058594,68.871094 91.058594,67.21875 C91.058594,65.097656 91.765625,63.210938 93.183594,62.03125 C94.359375,60.851562 96.011719,60.144531 97.898438,60.144531 L97.898438,63.210938 Z" id="Shape" fill="#6C1F26"></path>
    </g>
</svg>