<?xml version="1.0" encoding="UTF-8" standalone="no"?>
<svg
   xmlns:dc="http://purl.org/dc/elements/1.1/"
   xmlns:cc="http://creativecommons.org/ns#"
   xmlns:rdf="http://www.w3.org/1999/02/22-rdf-syntax-ns#"
   xmlns:svg="http://www.w3.org/2000/svg"
   xmlns="http://www.w3.org/2000/svg"
   id="svg19407"
   version="1.1"
   viewBox="0 0 66.410408 51.05201"
   height="51.05201mm"
   width="66.410408mm">
  <defs
     id="defs19401" />
  <metadata
     id="metadata19404">
    <rdf:RDF>
      <cc:Work
         rdf:about="">
        <dc:format>image/svg+xml</dc:format>
        <dc:type
           rdf:resource="http://purl.org/dc/dcmitype/StillImage" />
        <dc:title></dc:title>
      </cc:Work>
    </rdf:RDF>
  </metadata>
  <g
     transform="translate(137.77045,-164.99233)"
     id="layer1">
    <path
       style="fill:#ffffff;fill-opacity:1;fill-rule:nonzero;stroke:none;stroke-width:0.35277775"
       d="m -71.362228,211.27899 c 0,-0.01 0,-0.0194 0,-0.0289 -0.0042,-0.0386 -0.0095,-0.0758 -0.01659,-0.11299 0,-0.004 -0.0035,-0.007 -0.0042,-0.0109 -0.0067,-0.0332 -0.01659,-0.0676 -0.02752,-0.0992 -0.0035,-0.008 -0.0071,-0.018 -0.0095,-0.0261 -0.01093,-0.0289 -0.02328,-0.0579 -0.03718,-0.0854 0,-0.006 -0.0042,-0.01 -0.0056,-0.0152 l -5.203473,-10.26225 v -33.7633 c 0,-1.03769 -0.844728,-1.88242 -1.882386,-1.88242 h -52.029213 c -1.03766,0 -1.88239,0.84473 -1.88239,1.88242 v 33.7633 l -5.20347,10.26224 c 0,0.006 -0.004,0.01 -0.006,0.0152 -0.0138,0.0275 -0.0261,0.0565 -0.0372,0.0854 -0.004,0.008 -0.007,0.018 -0.01,0.0261 -0.0109,0.0318 -0.0208,0.0661 -0.0275,0.0992 0,0.004 -0.004,0.007 -0.004,0.0109 -0.008,0.0372 -0.0138,0.0744 -0.018,0.113 0,0.01 0,0.0194 0,0.0289 0,0.0208 -0.004,0.04 -0.004,0.0607 v 2.46807 c 0,1.23335 1.00323,2.23658 2.23654,2.23658 h 61.93733 c 1.233345,0 2.236539,-1.00323 2.236539,-2.23658 v -2.46807 c 0,-0.0208 0,-0.04 -0.0035,-0.0606 z M -130.5159,166.93786 h 51.902429 v 32.95992 H -130.5159 Z m -0.3762,34.90574 h 52.654832 l 4.321527,8.52314 h -21.373356 l -1.073505,-3.89018 c -0.217733,-0.791 -0.943962,-1.34497 -1.765263,-1.34497 H -111.0015 c -0.8213,0 -1.54753,0.55397 -1.76527,1.34497 l -1.0735,3.89018 h -21.37336 z m 33.584161,8.52314 h -14.513491 l 0.90675,-3.28937 h 12.699995 z m 24.002683,3.44096 c 0,0.15985 -0.130917,0.29076 -0.290762,0.29076 h -61.937332 c -0.15984,0 -0.29076,-0.13091 -0.29076,-0.29076 v -1.49517 h 62.518854 z m 0,0"
       id="path9642" />
    <path
       style="fill:#ffffff;fill-opacity:1;fill-rule:nonzero;stroke:none;stroke-width:0.35277775"
       d="m -81.661682,185.03839 c -0.537456,0 -0.972889,0.43547 -0.972889,0.97289 v 9.8654 H -126.4948 v -9.8654 c 0,-0.53742 -0.43543,-0.97289 -0.97289,-0.97289 -0.53742,0 -0.97289,0.43547 -0.97289,0.97289 v 10.2857 c 0,0.8406 0.68351,1.52548 1.52548,1.52548 h 44.700827 c 0.841976,0 1.525482,-0.68488 1.525482,-1.52548 v -10.2857 c 0,-0.53742 -0.43547,-0.97289 -0.972891,-0.97289 z m 0,0"
       id="path9644" />
    <path
       style="fill:#ffffff;fill-opacity:1;fill-rule:nonzero;stroke:none;stroke-width:0.35277775"
       d="M -82.214273,169.01322 H -126.9151 c -0.84197,0 -1.52548,0.6835 -1.52548,1.52548 v 10.28428 c 0,0.53746 0.43547,0.97289 0.97289,0.97289 0.53746,0 0.97289,-0.43543 0.97289,-0.97289 V 170.959 h 43.860229 v 9.86398 c 0,0.53746 0.435433,0.97289 0.972889,0.97289 0.537421,0 0.972891,-0.43543 0.972891,-0.97289 V 170.5387 c 0,-0.84198 -0.683506,-1.52548 -1.525482,-1.52548 z m 0,0"
       id="path9646" />
    <path
       style="fill:#b31e14;fill-opacity:1;fill-rule:nonzero;stroke:none;stroke-width:0.35277775"
       d="m -123.306,174.9112 c 0,-0.29213 0.10336,-0.54158 0.31005,-0.74828 0.2067,-0.20669 0.45615,-0.31005 0.74828,-0.31005 h 35.630556 c 0.292135,0 0.541584,0.10336 0.748276,0.31005 0.206693,0.2067 0.310057,0.45615 0.310057,0.74828 0,0.29214 -0.103364,0.54159 -0.310057,0.74828 -0.206692,0.20669 -0.456141,0.31006 -0.748276,0.31006 h -35.630556 c -0.29213,0 -0.54158,-0.10337 -0.74828,-0.31006 -0.20669,-0.20669 -0.31005,-0.45614 -0.31005,-0.74828 z m 0,0"
       id="path9658" />
    <path
       style="fill:#d4852b;fill-opacity:1;fill-rule:nonzero;stroke:none;stroke-width:0.35277775"
       d="m -123.306,178.43898 c 0,-0.29214 0.10336,-0.54158 0.31005,-0.74828 0.2067,-0.20669 0.45615,-0.31005 0.74828,-0.31005 h 27.869443 c 0.292137,0 0.541586,0.10336 0.748279,0.31005 0.206692,0.2067 0.310055,0.45614 0.310055,0.74828 0,0.29213 -0.103363,0.54158 -0.310055,0.74828 -0.206693,0.20669 -0.456142,0.31005 -0.748279,0.31005 h -27.869443 c -0.29213,0 -0.54158,-0.10336 -0.74828,-0.31005 -0.20669,-0.2067 -0.31005,-0.45615 -0.31005,-0.74828 z m 0,0"
       id="path9660" />
    <path
       style="fill:#ffe614;fill-opacity:1;fill-rule:nonzero;stroke:none;stroke-width:0.35277775"
       d="m -101.081,181.96676 c 0,-0.29214 0.10336,-0.54159 0.31005,-0.74828 0.2067,-0.20669 0.45615,-0.31006 0.74828,-0.31006 h 13.405556 c 0.292135,0 0.541584,0.10337 0.748276,0.31006 0.206693,0.20669 0.310057,0.45614 0.310057,0.74828 0,0.29213 -0.103364,0.54158 -0.310057,0.74827 -0.206692,0.2067 -0.456141,0.31006 -0.748276,0.31006 h -13.405556 c -0.29213,0 -0.54158,-0.10336 -0.74828,-0.31006 -0.20669,-0.20669 -0.31005,-0.45614 -0.31005,-0.74827 z m 0,0"
       id="path9662" />
    <path
       style="fill:#457838;fill-opacity:1;fill-rule:nonzero;stroke:none;stroke-width:0.35277775"
       d="m -123.306,185.49454 c 0,-0.29214 0.10336,-0.54159 0.31005,-0.74828 0.2067,-0.20669 0.45615,-0.31006 0.74828,-0.31006 h 4.58611 c 0.29214,0 0.54159,0.10337 0.74828,0.31006 0.20669,0.20669 0.31006,0.45614 0.31006,0.74828 0,0.29213 -0.10337,0.54158 -0.31006,0.74827 -0.20669,0.20669 -0.45614,0.31006 -0.74828,0.31006 h -4.58611 c -0.29213,0 -0.54158,-0.10337 -0.74828,-0.31006 -0.20669,-0.20669 -0.31005,-0.45614 -0.31005,-0.74827 z m 0,0"
       id="path9664" />
    <path
       style="fill:#457838;fill-opacity:1;fill-rule:nonzero;stroke:none;stroke-width:0.35277775"
       d="m -115.54489,185.49454 c 0,-0.29214 0.10336,-0.54159 0.31005,-0.74828 0.2067,-0.20669 0.45615,-0.31006 0.74828,-0.31006 h 9.87778 c 0.29213,0 0.54158,0.10337 0.74828,0.31006 0.20669,0.20669 0.31005,0.45614 0.31005,0.74828 0,0.29213 -0.10336,0.54158 -0.31005,0.74827 -0.2067,0.20669 -0.45615,0.31006 -0.74828,0.31006 h -9.87778 c -0.29213,0 -0.54158,-0.10337 -0.74828,-0.31006 -0.20669,-0.20669 -0.31005,-0.45614 -0.31005,-0.74827 z m 0,0"
       id="path9666" />
    <path
       style="fill:#3a4f97;fill-opacity:1;fill-rule:nonzero;stroke:none;stroke-width:0.35277775"
       d="m -103.55045,189.02231 c 0,-0.29213 0.10337,-0.54158 0.31006,-0.74827 0.20669,-0.2067 0.45614,-0.31006 0.74828,-0.31006 h 15.874996 c 0.292135,0 0.541584,0.10336 0.748276,0.31006 0.206693,0.20669 0.310057,0.45614 0.310057,0.74827 0,0.29214 -0.103364,0.54159 -0.310057,0.74828 -0.206692,0.20669 -0.456141,0.31006 -0.748276,0.31006 h -15.874996 c -0.29214,0 -0.54159,-0.10337 -0.74828,-0.31006 -0.20669,-0.20669 -0.31006,-0.45614 -0.31006,-0.74828 z m 0,0"
       id="path9668" />
    <path
       style="fill:#5c1478;fill-opacity:1;fill-rule:nonzero;stroke:none;stroke-width:0.35277775"
       d="m -123.306,192.55009 c 0,-0.29213 0.10336,-0.54158 0.31005,-0.74828 0.2067,-0.20669 0.45615,-0.31005 0.74828,-0.31005 h 15.52222 c 0.29214,0 0.54159,0.10336 0.74828,0.31005 0.20669,0.2067 0.31006,0.45615 0.31006,0.74828 0,0.29213 -0.10337,0.54158 -0.31006,0.74828 -0.20669,0.20669 -0.45614,0.31005 -0.74828,0.31005 h -15.52222 c -0.29213,0 -0.54158,-0.10336 -0.74828,-0.31005 -0.20669,-0.2067 -0.31005,-0.45615 -0.31005,-0.74828 z m 0,0"
       id="path9670" />
  </g>
</svg>
