<?xml version="1.0" encoding="UTF-8" standalone="no"?>
<svg
   xmlns:dc="http://purl.org/dc/elements/1.1/"
   xmlns:cc="http://creativecommons.org/ns#"
   xmlns:rdf="http://www.w3.org/1999/02/22-rdf-syntax-ns#"
   xmlns:svg="http://www.w3.org/2000/svg"
   xmlns="http://www.w3.org/2000/svg"
   id="svg19407"
   version="1.1"
   viewBox="0 0 42.044216 44.890968"
   height="44.890968mm"
   width="42.044216mm">
  <defs
     id="defs19401" />
  <metadata
     id="metadata19404">
    <rdf:RDF>
      <cc:Work
         rdf:about="">
        <dc:format>image/svg+xml</dc:format>
        <dc:type
           rdf:resource="http://purl.org/dc/dcmitype/StillImage" />
        <dc:title></dc:title>
      </cc:Work>
    </rdf:RDF>
  </metadata>
  <g
     transform="translate(57.307822,-195.93547)"
     id="layer1">
    <path
       style="fill:#ffe614;fill-opacity:1;fill-rule:nonzero;stroke:none;stroke-width:0.35277775"
       d="m -32.372191,212.13982 h 2.45842 c 0.318325,0 0.576019,-0.25908 0.576019,-0.57602 0,-0.31972 -0.257694,-0.57601 -0.576019,-0.57601 h -2.45842 c -0.318326,0 -0.576019,0.25629 -0.576019,0.57601 0,0.31694 0.257693,0.57602 0.576019,0.57602 z m 0,0"
       id="path9352" />
    <path
       style="fill:#d4852b;fill-opacity:1;fill-rule:nonzero;stroke:none;stroke-width:0.35277775"
       d="m -42.922451,212.13982 h 8.623762 c 0.318329,0 0.576022,-0.25908 0.576022,-0.57602 0,-0.31972 -0.257693,-0.57601 -0.576022,-0.57601 h -8.623762 c -0.31695,0 -0.576019,0.25629 -0.576019,0.57601 0,0.31694 0.259069,0.57602 0.576019,0.57602 z m 0,0"
       id="path9354" />
    <path
       style="fill:#b31e14;fill-opacity:1;fill-rule:nonzero;stroke:none;stroke-width:0.35277775"
       d="m -48.555872,212.13982 h 3.66696 c 0.318329,0 0.576019,-0.25908 0.576019,-0.57602 0,-0.31972 -0.25769,-0.57601 -0.576019,-0.57601 h -3.66696 c -0.318325,0 -0.576019,0.25629 -0.576019,0.57601 0,0.31694 0.257694,0.57602 0.576019,0.57602 z m 0,0"
       id="path9356" />
    <path
       style="fill:#457838;fill-opacity:1;fill-rule:nonzero;stroke:none;stroke-width:0.35277775"
       d="m -35.570619,215.9005 h -10.214017 c -0.318326,0 -0.576019,0.25767 -0.576019,0.57602 0,0.31831 0.257693,0.57601 0.576019,0.57601 h 10.214017 c 0.31695,0 0.576023,-0.2577 0.576023,-0.57601 0,-0.31835 -0.259073,-0.57602 -0.576023,-0.57602 z m 0,0"
       id="path9358" />
    <path
       style="fill:#457838;fill-opacity:1;fill-rule:nonzero;stroke:none;stroke-width:0.35277775"
       d="m -48.537957,217.05253 h 1.069357 c 0.31833,0 0.576019,-0.2577 0.576019,-0.57601 0,-0.31835 -0.257689,-0.57602 -0.576019,-0.57602 h -1.069357 c -0.318326,0 -0.576019,0.25767 -0.576019,0.57602 0,0.31831 0.257693,0.57601 0.576019,0.57601 z m 0,0"
       id="path9360" />
    <path
       style="fill:#3a4f97;fill-opacity:1;fill-rule:nonzero;stroke:none;stroke-width:0.35277775"
       d="m -48.582055,222.27255 h 6.840584 c 0.318325,0 0.576019,-0.25908 0.576019,-0.57605 0,-0.31831 -0.257694,-0.57602 -0.576019,-0.57602 h -6.840584 c -0.318325,0 -0.576019,0.25771 -0.576019,0.57602 0,0.31697 0.257694,0.57605 0.576019,0.57605 z m 0,0"
       id="path9362" />
    <path
       style="fill:#5c1478;fill-opacity:1;fill-rule:nonzero;stroke:none;stroke-width:0.35277775"
       d="m -45.783257,225.94363 h -2.765725 c -0.318325,0 -0.576019,0.2577 -0.576019,0.57601 0,0.31835 0.257694,0.57602 0.576019,0.57602 h 2.765725 c 0.316946,0 0.576019,-0.25767 0.576019,-0.57602 0,-0.31831 -0.259073,-0.57601 -0.576019,-0.57601 z m 0,0"
       id="path9364" />
    <path
       style="fill:#ffffff;fill-opacity:1;fill-rule:nonzero;stroke:none;stroke-width:0.35277775"
       d="m -16.196779,208.29786 c -0.723471,-1.09693 -2.199349,-1.40286 -3.299023,-0.68213 l -0.606338,0.39825 h -0.0013 l -1.066622,0.7028 v -8.21037 c -0.0013,-1.31463 -1.067983,-2.38125 -2.382628,-2.38263 h -12.219153 c -0.636655,-1.33667 -1.985751,-2.18831 -3.467143,-2.18831 -1.481391,0 -2.830491,0.85164 -3.467145,2.18831 h -12.219065 c -1.314648,0 -2.38125,1.068 -2.382626,2.38263 v 37.93878 c 0.0028,1.31466 1.067978,2.37987 2.382626,2.38125 h 31.372418 c 1.314646,0 2.379869,-1.06659 2.382629,-2.38125 v -22.84511 l 4.832781,-3.17638 c 1.098296,-0.72348 1.404218,-2.19936 0.683506,-3.29904 z m -20.718805,16.31043 -0.660079,-1.00457 18.892904,-12.41337 0.66008,1.00457 z m 10.398679,4.83831 h -2.9366 c -1.314648,0 -2.379874,1.06659 -2.38263,2.38125 v 2.85944 h -19.770714 c -0.195679,0 -0.352778,-0.1585 -0.354153,-0.35415 v -29.71602 c 0.0014,-0.19569 0.158474,-0.35278 0.354153,-0.35416 h 2.508031 v 1.53236 c 0,0.30868 0.249425,0.55813 0.558106,0.55813 H -29.9372 c 0.308681,0 0.558109,-0.24945 0.558109,-0.55813 v -1.53236 h 2.508028 c 0.195683,0 0.354158,0.15847 0.354158,0.35416 v 7.61227 l -13.41107,8.81119 c -0.0083,0.006 -0.01654,0.0123 -0.0248,0.018 -0.0041,0.004 -0.0096,0.008 -0.01517,0.0109 -0.01654,0.0138 -0.03306,0.0289 -0.04823,0.0441 h -0.0014 c -0.01517,0.0152 -0.02893,0.0318 -0.04272,0.0496 -0.0028,0.004 -0.0055,0.008 -0.0083,0.0109 -0.01101,0.0152 -0.02067,0.0303 -0.0303,0.0455 -0.0014,0 -0.0028,0.004 -0.0055,0.007 l -2.53559,4.36975 -0.752408,0.49474 c -0.257693,0.16947 -0.32935,0.51537 -0.159854,0.77308 0.168123,0.25766 0.514011,0.32935 0.771701,0.15984 l 0.753788,-0.4947 5.016058,-0.59394 c 0.0041,0 0.0069,0 0.0097,0 0.0083,0 0.01792,-0.004 0.02617,-0.004 0.01654,-0.004 0.03306,-0.007 0.04823,-0.0109 0.0097,-0.004 0.0193,-0.006 0.02755,-0.01 0.01654,-0.006 0.0303,-0.0109 0.04548,-0.0166 0.0083,-0.004 0.01792,-0.008 0.02755,-0.0124 0.01379,-0.008 0.02755,-0.0152 0.04134,-0.0233 0.0055,-0.004 0.01101,-0.006 0.01654,-0.01 l 10.251219,-6.73448 z m -0.766191,1.11623 -3.436829,3.43542 v -2.1704 c 0.0013,-0.69867 0.567754,-1.26365 1.26642,-1.26502 z m -10.754208,-5.62931 -3.141928,0.3707 1.5875,-2.73678 0.777212,1.18374 z m -0.150206,-2.26272 -0.660083,-1.0046 17.430807,-11.45286 1.460717,-0.95914 0.660083,1.00461 z m 14.634764,-23.43079 c 0.698664,0 1.265039,0.56776 1.266415,1.2664 v 8.94348 l -3.114366,2.04639 v -6.87916 c -0.0013,-0.81167 -0.658701,-1.46901 -1.470366,-1.47038 h -2.508028 v -1.72805 c 0,-0.30868 -0.249428,-0.55813 -0.558109,-0.55813 h -5.461161 v -1.08451 c 0,-0.17914 -0.01242,-0.35828 -0.03721,-0.53604 z m -15.686208,-2.18832 c 1.504816,0 2.724379,1.22093 2.725759,2.72574 v 1.64126 c 0,0.30731 0.249424,0.5581 0.558105,0.5581 h 5.461164 v 3.26044 h -17.488682 v -3.26044 h 5.461166 c 0.307301,0 0.558105,-0.25079 0.558105,-0.5581 v -1.64264 c 0.0014,-1.50343 1.220943,-2.72298 2.724383,-2.72436 z m 16.952623,41.3935 c -0.0013,0.69868 -0.567751,1.26365 -1.266415,1.26502 h -31.372419 c -0.698666,0 -1.265036,-0.56634 -1.266415,-1.26502 v -37.93878 c 0.0014,-0.69864 0.567749,-1.26503 1.266415,-1.2664 h 11.882826 c -0.0248,0.17776 -0.03721,0.3569 -0.03721,0.53604 v 1.08451 h -5.461163 c -0.308681,0 -0.558106,0.24945 -0.558106,0.55813 v 1.72805 h -2.508031 c -0.811664,0 -1.468988,0.65871 -1.470367,1.47038 v 29.71602 c 0.0014,0.81164 0.658703,1.46897 1.470367,1.47034 h 19.976042 c 0.07441,0 0.148829,-0.007 0.221865,-0.0166 0.04272,0.0109 0.08682,0.0166 0.130912,0.0166 0.16261,0 0.315571,-0.0703 0.420303,-0.19152 0.14607,-0.0772 0.279743,-0.17639 0.395496,-0.29217 l 4.577844,-4.57645 c 0.310058,-0.31005 0.48369,-0.73035 0.48369,-1.16857 V 218.3782 l 3.11299,-2.04639 z m 5.335765,-26.95441 -0.139182,0.0923 -1.93339,-2.94213 0.140563,-0.0923 c 0.584287,-0.38308 1.368393,-0.22186 1.752865,0.36244 l 0.542946,0.82681 c 0.381719,0.5843 0.220485,1.36839 -0.363802,1.75288 z m 0,0"
       id="path9366" />
  </g>
</svg>
