<?xml version="1.0" encoding="UTF-8" standalone="no"?>
<!-- Created with Inkscape (http://www.inkscape.org/) -->

<svg
   xmlns:dc="http://purl.org/dc/elements/1.1/"
   xmlns:cc="http://creativecommons.org/ns#"
   xmlns:rdf="http://www.w3.org/1999/02/22-rdf-syntax-ns#"
   xmlns:svg="http://www.w3.org/2000/svg"
   xmlns="http://www.w3.org/2000/svg"
   xmlns:sodipodi="http://sodipodi.sourceforge.net/DTD/sodipodi-0.dtd"
   xmlns:inkscape="http://www.inkscape.org/namespaces/inkscape"
   width="1000"
   height="1000"
   viewBox="0 0 264.58333 264.58333"
   version="1.1"
   id="svg8"
   inkscape:version="0.92.4 (5da689c313, 2019-01-14)">
  <defs
     id="defs2" />
  <sodipodi:namedview
     id="base"
     pagecolor="#ffffff"
     bordercolor="#666666"
     borderopacity="1.0"
     inkscape:pageopacity="0.0"
     inkscape:pageshadow="2"
     inkscape:zoom="0.49497475"
     inkscape:cx="348.15906"
     inkscape:cy="426.4829"
     inkscape:document-units="mm"
     inkscape:current-layer="layer1"
     showgrid="false"
     units="px"
     fit-margin-top="0"
     fit-margin-left="0"
     fit-margin-right="0"
     fit-margin-bottom="0"
     inkscape:pagecheckerboard="true"
     inkscape:window-width="1920"
     inkscape:window-height="1017"
     inkscape:window-x="-8"
     inkscape:window-y="-8"
     inkscape:window-maximized="1" />
  <metadata
     id="metadata5">
    <rdf:RDF>
      <cc:Work
         rdf:about="">
        <dc:format>image/svg+xml</dc:format>
        <dc:type
           rdf:resource="http://purl.org/dc/dcmitype/StillImage" />
        <dc:title></dc:title>
      </cc:Work>
    </rdf:RDF>
  </metadata>
  <g
     inkscape:label="Camada 1"
     inkscape:groupmode="layer"
     id="layer1"
     transform="translate(0,-32.41667)">
    <g
       id="layer1-1"
       transform="matrix(2.6026184,0,0,2.6026184,238.25154,-416.26947)">
      <path
         id="path9548"
         d="M -22.221182,195.53514 H -60.73185 c -1.790065,0 -3.245273,1.45521 -3.245273,3.24527 v 3.67799 c 0,0.59669 0.483693,1.08176 1.081757,1.08176 0.598064,0 1.081758,-0.48507 1.081758,-1.08176 v -3.67799 c 0,-0.59669 0.48507,-1.08175 1.081758,-1.08175 h 38.510668 c 0.596688,0 1.081757,0.48506 1.081757,1.08175 v 48.89557 c 0,0.59669 -0.485069,1.08175 -1.081757,1.08175 H -60.73185 c -0.596688,0 -1.081758,-0.48506 -1.081758,-1.08175 v -3.49748 c 0,-0.59806 -0.483694,-1.08175 -1.081758,-1.08175 -0.598064,0 -1.081757,0.48369 -1.081757,1.08175 v 3.49748 c 0,1.79006 1.455208,3.24527 3.245273,3.24527 h 38.510668 c 1.790065,0 3.245273,-1.45521 3.245273,-3.24527 v -48.89557 c 0,-1.79006 -1.455208,-3.24527 -3.245273,-3.24527 z m 0,0"
         style="fill:#ffffff;fill-opacity:1;fill-rule:nonzero;stroke:none;stroke-width:0.35277775"
         inkscape:connector-curvature="0" />
      <path
         id="path9550"
         d="m -26.661242,243.23316 c -0.20119,-0.20118 -0.478155,-0.31693 -0.764789,-0.31693 -0.283879,0 -0.563631,0.11575 -0.764821,0.31693 -0.201189,0.20119 -0.316936,0.48095 -0.316936,0.76483 0,0.28388 0.115747,0.56363 0.316936,0.76482 0.20119,0.20119 0.480942,0.31693 0.764821,0.31693 0.286634,0 0.5636,-0.11574 0.764789,-0.31693 0.201223,-0.20119 0.31697,-0.48094 0.31697,-0.76482 0,-0.28388 -0.115747,-0.56364 -0.31697,-0.76483 z m 0,0"
         style="fill:#5c1478;fill-opacity:1;fill-rule:nonzero;stroke:none;stroke-width:0.35277775"
         inkscape:connector-curvature="0" />
      <path
         id="path9552"
         d="m -45.806318,205.02984 c -6.436817,0 -11.67472,5.23652 -11.67472,11.67472 0,3.34038 1.411111,6.35829 3.6697,8.48871 0.03859,0.0413 0.07994,0.0813 0.124037,0.11575 2.078072,1.90585 4.846566,3.06892 7.880983,3.06892 3.034454,0 5.802913,-1.16307 7.881022,-3.06892 0.04547,-0.0346 0.08682,-0.0744 0.125376,-0.11575 2.25725,-2.13042 3.66836,-5.14833 3.66836,-8.48871 0,-6.4382 -5.236562,-11.67472 -11.674758,-11.67472 z m 0,21.18455 c -2.222781,0 -4.267763,-0.76616 -5.889729,-2.04774 1.149279,-2.1718 3.385855,-3.53882 5.889729,-3.53882 2.503911,0 4.741828,1.36702 5.889731,3.53882 -1.620554,1.28158 -3.666948,2.04774 -5.889731,2.04774 z m -2.276509,-10.02658 v -0.8406 c 0,-1.25539 1.021114,-2.27655 2.276509,-2.27655 1.255395,0 2.276512,1.02116 2.276512,2.27655 v 0.8406 c 0,1.25539 -1.021117,2.27651 -2.276512,2.27651 -1.255395,0 -2.276509,-1.02112 -2.276509,-2.27651 z m 9.748237,6.3941 c -0.989436,-1.57925 -2.439141,-2.78367 -4.134096,-3.46993 0.686257,-0.7827 1.102431,-1.80523 1.102431,-2.92417 v -0.8406 c 0,-2.44877 -1.991291,-4.44006 -4.440063,-4.44006 -2.44877,0 -4.440024,1.99129 -4.440024,4.44006 v 0.8406 c 0,1.11894 0.417547,2.14147 1.10243,2.92417 -1.694991,0.68626 -3.14332,1.89068 -4.134132,3.46993 -1.276068,-1.61922 -2.039479,-3.66145 -2.039479,-5.87735 0,-5.24482 4.266389,-9.51121 9.511205,-9.51121 5.24482,0 9.511242,4.26639 9.511242,9.51121 0,2.2159 -0.762069,4.25813 -2.039514,5.87735 z m 0,0"
         style="fill:#ffffff;fill-opacity:1;fill-rule:nonzero;stroke:none;stroke-width:0.35277775"
         inkscape:connector-curvature="0" />
      <path
         id="path9554"
         d="m -45.806318,199.86217 c -9.286591,0 -16.84101,7.5558 -16.84101,16.84239 0,5.36885 2.524584,10.1589 6.450612,13.24571 l -12.555325,12.55529 c -0.788211,0.78687 -2.068407,0.78687 -2.855278,0 -0.381705,-0.38171 -0.591184,-0.88882 -0.591184,-1.42762 0,-0.53883 0.209479,-1.04595 0.591184,-1.42766 l 6.42165,-6.42165 c 0.421675,-0.42171 0.421675,-1.10659 0,-1.52964 -0.423051,-0.42168 -1.107934,-0.42168 -1.52961,0 l -6.421649,6.42165 c -0.789622,0.78962 -1.225091,1.8397 -1.225091,2.9573 0,1.11619 0.435469,2.16764 1.225091,2.95726 0.815799,0.81443 1.886515,1.22231 2.957266,1.22231 1.070716,0 2.141467,-0.40788 2.957265,-1.22231 l 12.840547,-12.84195 c 2.513541,1.4938 5.446006,2.35232 8.575532,2.35232 9.286595,0 16.842388,-7.55442 16.842388,-16.84101 0,-9.28659 -7.555793,-16.84239 -16.842388,-16.84239 z m 0,31.51988 c -8.093215,0 -14.67887,-6.58428 -14.67887,-14.67749 0,-8.09459 6.585655,-14.67887 14.67887,-14.67887 8.093218,0 14.678872,6.58428 14.678872,14.67887 0,8.09321 -6.585654,14.67749 -14.678872,14.67749 z m 0,0"
         style="fill:#ffffff;fill-opacity:1;fill-rule:nonzero;stroke:none;stroke-width:0.35277775"
         inkscape:connector-curvature="0" />
      <path
         id="path9556"
         d="m -61.780517,228.29387 c -0.20119,-0.20119 -0.479566,-0.31697 -0.764822,-0.31697 -0.285257,0 -0.563634,0.11578 -0.764823,0.31697 -0.201189,0.20119 -0.316935,0.48094 -0.316935,0.76479 0,0.28526 0.115746,0.56363 0.316935,0.76482 0.201189,0.20119 0.479566,0.31697 0.764823,0.31697 0.285256,0 0.563632,-0.11578 0.764822,-0.31697 0.201189,-0.20119 0.316935,-0.47956 0.316935,-0.76482 0,-0.28385 -0.115746,-0.5636 -0.316935,-0.76479 z m 0,0"
         style="fill:#ffffff;fill-opacity:1;fill-rule:nonzero;stroke:none;stroke-width:0.35277775"
         inkscape:connector-curvature="0" />
      <path
         id="path9648"
         d="m -54.606464,239.98514 c 0,-0.29214 0.103364,-0.54159 0.310056,-0.74828 0.206693,-0.20669 0.456142,-0.31005 0.748277,-0.31005 h 14.111112 c 0.292134,0 0.541584,0.10336 0.748276,0.31005 0.206693,0.20669 0.310057,0.45614 0.310057,0.74828 0,0.29213 -0.103364,0.54158 -0.310057,0.74828 -0.206692,0.20669 -0.456142,0.31005 -0.748276,0.31005 h -14.111112 c -0.292135,0 -0.541584,-0.10336 -0.748277,-0.31005 -0.206692,-0.2067 -0.310056,-0.45615 -0.310056,-0.74828 z m 0,0"
         style="fill:#b31e14;fill-opacity:1;fill-rule:nonzero;stroke:none;stroke-width:0.35277775"
         inkscape:connector-curvature="0" />
      <path
         id="path9650"
         d="m -49.667575,243.86569 c 0,-0.29213 0.103364,-0.54158 0.310056,-0.74827 0.206693,-0.20669 0.456142,-0.31006 0.748277,-0.31006 h 17.63889 c 0.292134,0 0.541583,0.10337 0.748276,0.31006 0.206692,0.20669 0.310057,0.45614 0.310057,0.74827 0,0.29214 -0.103365,0.54159 -0.310057,0.74828 -0.206693,0.20669 -0.456142,0.31006 -0.748276,0.31006 h -17.63889 c -0.292135,0 -0.541584,-0.10337 -0.748277,-0.31006 -0.206692,-0.20669 -0.310056,-0.45614 -0.310056,-0.74828 z m 0,0"
         style="fill:#3a4f97;fill-opacity:1;fill-rule:nonzero;stroke:none;stroke-width:0.35277775"
         inkscape:connector-curvature="0" />
      <path
         id="path9652"
         d="m -36.967575,239.98514 c 0,-0.29214 0.103364,-0.54159 0.310057,-0.74828 0.206692,-0.20669 0.456141,-0.31005 0.748276,-0.31005 h 3.527777 c 0.292137,0 0.541586,0.10336 0.748278,0.31005 0.206693,0.20669 0.310055,0.45614 0.310055,0.74828 0,0.29213 -0.103362,0.54158 -0.310055,0.74828 -0.206692,0.20669 -0.456141,0.31005 -0.748278,0.31005 h -3.527777 c -0.292135,0 -0.541584,-0.10336 -0.748276,-0.31005 -0.206693,-0.2067 -0.310057,-0.45615 -0.310057,-0.74828 z m 0,0"
         style="fill:#d4852b;fill-opacity:1;fill-rule:nonzero;stroke:none;stroke-width:0.35277775"
         inkscape:connector-curvature="0" />
      <path
         id="path9654"
         d="m -30.264799,239.98514 c 0,-0.29214 0.103365,-0.54159 0.310058,-0.74828 0.206692,-0.20669 0.456141,-0.31005 0.748276,-0.31005 h 1.76389 c 0.292134,0 0.541583,0.10336 0.748276,0.31005 0.206692,0.20669 0.310057,0.45614 0.310057,0.74828 0,0.29213 -0.103365,0.54158 -0.310057,0.74828 -0.206693,0.20669 -0.456142,0.31005 -0.748276,0.31005 h -1.76389 c -0.292135,0 -0.541584,-0.10336 -0.748276,-0.31005 -0.206693,-0.2067 -0.310058,-0.45615 -0.310058,-0.74828 z m 0,0"
         style="fill:#ffe614;fill-opacity:1;fill-rule:nonzero;stroke:none;stroke-width:0.35277775"
         inkscape:connector-curvature="0" />
      <path
         id="path9656"
         d="m -54.606464,243.86569 c 0,-0.29213 0.103364,-0.54158 0.310056,-0.74827 0.206693,-0.20669 0.456142,-0.31006 0.748277,-0.31006 h 1.763889 c 0.292136,0 0.541585,0.10337 0.748277,0.31006 0.206693,0.20669 0.310056,0.45614 0.310056,0.74827 0,0.29214 -0.103363,0.54159 -0.310056,0.74828 -0.206692,0.20669 -0.456141,0.31006 -0.748277,0.31006 h -1.763889 c -0.292135,0 -0.541584,-0.10337 -0.748277,-0.31006 -0.206692,-0.20669 -0.310056,-0.45614 -0.310056,-0.74828 z m 0,0"
         style="fill:#457838;fill-opacity:1;fill-rule:nonzero;stroke:none;stroke-width:0.35277775"
         inkscape:connector-curvature="0" />
    </g>
  </g>
</svg>
