<?xml version="1.0" encoding="UTF-8" standalone="no"?>
<!-- Created with Inkscape (http://www.inkscape.org/) -->

<svg
   xmlns:dc="http://purl.org/dc/elements/1.1/"
   xmlns:cc="http://creativecommons.org/ns#"
   xmlns:rdf="http://www.w3.org/1999/02/22-rdf-syntax-ns#"
   xmlns:svg="http://www.w3.org/2000/svg"
   xmlns="http://www.w3.org/2000/svg"
   xmlns:sodipodi="http://sodipodi.sourceforge.net/DTD/sodipodi-0.dtd"
   xmlns:inkscape="http://www.inkscape.org/namespaces/inkscape"
   width="1000"
   height="1000"
   viewBox="0 0 264.58333 264.58333"
   version="1.1"
   id="svg8"
   inkscape:version="0.92.4 (5da689c313, 2019-01-14)">
  <defs
     id="defs2" />
  <sodipodi:namedview
     id="base"
     pagecolor="#ffffff"
     bordercolor="#666666"
     borderopacity="1.0"
     inkscape:pageopacity="0.0"
     inkscape:pageshadow="2"
     inkscape:zoom="0.49497475"
     inkscape:cx="348.15906"
     inkscape:cy="426.4829"
     inkscape:document-units="mm"
     inkscape:current-layer="layer1"
     showgrid="false"
     units="px"
     fit-margin-top="0"
     fit-margin-left="0"
     fit-margin-right="0"
     fit-margin-bottom="0"
     inkscape:pagecheckerboard="true"
     inkscape:window-width="1920"
     inkscape:window-height="1017"
     inkscape:window-x="-8"
     inkscape:window-y="-8"
     inkscape:window-maximized="1" />
  <metadata
     id="metadata5">
    <rdf:RDF>
      <cc:Work
         rdf:about="">
        <dc:format>image/svg+xml</dc:format>
        <dc:type
           rdf:resource="http://purl.org/dc/dcmitype/StillImage" />
        <dc:title></dc:title>
      </cc:Work>
    </rdf:RDF>
  </metadata>
  <g
     inkscape:label="Camada 1"
     inkscape:groupmode="layer"
     id="layer1"
     transform="translate(0,-32.41667)">
    <g
       id="layer1-54"
       transform="matrix(4.4859721,0,0,4.4859721,339.01648,-831.70489)">
      <path
         id="path9450"
         d="m -27.866637,203.9017 h -19.734202 c -2.513471,0.003 -4.550828,2.0405 -4.553968,4.55397 v 9.10794 h -12.143561 c -2.514518,0.003 -4.551875,2.04049 -4.553967,4.55396 v 10.62628 c 0.0031,2.22151 1.60519,4.11762 3.795322,4.49118 v 2.33977 c 0,0.41856 0.340082,0.75864 0.758645,0.75864 0.20091,0 0.394497,-0.0795 0.536808,-0.22184 l 2.813789,-2.81378 h 16.383606 c 2.513473,-0.003 4.550828,-2.0405 4.553968,-4.55397 v -9.10794 h 8.792966 l 2.813786,2.8138 c 0.297183,0.2961 0.777483,0.2961 1.073617,0 0.142313,-0.14233 0.221837,-0.33486 0.221837,-0.53577 v -2.33977 c 2.190131,-0.37356 3.792182,-2.26967 3.795322,-4.49117 v -10.62733 c -0.0021,-2.51347 -2.039449,-4.55083 -4.553968,-4.55397 z m -13.661898,28.84215 c 0,1.67634 -1.359284,3.03562 -3.03563,3.03562 H -61.26274 c -0.20091,0 -0.393449,0.0806 -0.53576,0.22288 l -1.741223,1.74017 v -1.20337 c 0,-0.4196 -0.339034,-0.75968 -0.758645,-0.75968 -1.676345,0 -3.035629,-1.35928 -3.035629,-3.03562 v -10.62628 c 0,-1.67634 1.359284,-3.03562 3.035629,-3.03562 h 19.734203 c 1.676346,0 3.03563,1.35928 3.03563,3.03562 z m 16.697528,-13.6619 c 0,1.67634 -1.359284,3.03562 -3.03563,3.03562 -0.419609,0 -0.758645,0.34007 -0.758645,0.75968 v 1.20337 l -1.741221,-1.74017 c -0.142311,-0.14231 -0.334851,-0.22288 -0.535761,-0.22288 h -9.107933 c -0.0031,-2.51347 -2.040495,-4.55084 -4.553968,-4.55396 h -6.072304 v -9.10794 c 0,-1.67634 1.359284,-3.03562 3.03563,-3.03562 h 19.734202 c 1.676346,0 3.03563,1.35928 3.03563,3.03562 z m 0,0"
         style="fill:#ffffff;fill-opacity:1;fill-rule:nonzero;stroke:none;stroke-width:0.26788038"
         inkscape:connector-curvature="0" />
      <path
         id="path9452"
         d="m -60.503047,225.15423 c -1.257781,0 -2.276983,1.01921 -2.276983,2.27699 0,1.25673 1.019202,2.27698 2.276983,2.27698 1.256735,0 2.276983,-1.02025 2.276983,-2.27698 0,-1.25778 -1.020248,-2.27699 -2.276983,-2.27699 z m 0,3.03565 c -0.419611,0 -0.759693,-0.3401 -0.759693,-0.75866 0,-0.41961 0.340082,-0.75968 0.759693,-0.75968 0.418563,0 0.758645,0.34007 0.758645,0.75968 0,0.41856 -0.340082,0.75866 -0.758645,0.75866 z m 0,0"
         style="fill:#ffffff;fill-opacity:1;fill-rule:nonzero;stroke:none;stroke-width:0.26788038"
         inkscape:connector-curvature="0" />
      <path
         id="path9454"
         d="m -54.43179,225.15423 c -1.256737,0 -2.276983,1.01921 -2.276983,2.27699 0,1.25673 1.020246,2.27698 2.276983,2.27698 1.257782,0 2.276983,-1.02025 2.276983,-2.27698 0,-1.25778 -1.019201,-2.27699 -2.276983,-2.27699 z m 0,3.03565 c -0.418563,0 -0.758645,-0.3401 -0.758645,-0.75866 0,-0.41961 0.340082,-0.75968 0.758645,-0.75968 0.419611,0 0.759693,0.34007 0.759693,0.75968 0,0.41856 -0.340082,0.75866 -0.759693,0.75866 z m 0,0"
         style="fill:#ffffff;fill-opacity:1;fill-rule:nonzero;stroke:none;stroke-width:0.26788038"
         inkscape:connector-curvature="0" />
      <path
         id="path9456"
         d="m -48.359485,225.15423 c -1.257782,0 -2.276984,1.01921 -2.276984,2.27699 0,1.25673 1.019202,2.27698 2.276984,2.27698 1.257781,0 2.276983,-1.02025 2.276983,-2.27698 0,-1.25778 -1.019202,-2.27699 -2.276983,-2.27699 z m 0,3.03565 c -0.41961,0 -0.758645,-0.3401 -0.758645,-0.75866 0,-0.41961 0.339035,-0.75968 0.758645,-0.75968 0.41961,0 0.758646,0.34007 0.758646,0.75968 0,0.41856 -0.339036,0.75866 -0.758646,0.75866 z m 0,0"
         style="fill:#ffffff;fill-opacity:1;fill-rule:nonzero;stroke:none;stroke-width:0.26788038"
         inkscape:connector-curvature="0" />
      <path
         id="path9458"
         d="m -47.600839,209.04793 c 0,-0.20927 0.07429,-0.38822 0.222884,-0.53681 0.147542,-0.14752 0.326479,-0.22183 0.536808,-0.22183 h 11.840104 c 0.209282,0 0.388219,0.0743 0.536806,0.22183 0.147542,0.14859 0.221839,0.32754 0.221839,0.53681 0,0.21034 -0.07429,0.38928 -0.221839,0.5368 -0.148587,0.1486 -0.327524,0.22291 -0.536806,0.22291 h -11.840104 c -0.210329,0 -0.389266,-0.0743 -0.536808,-0.22291 -0.148591,-0.14752 -0.222884,-0.32646 -0.222884,-0.5368 z m 0,0"
         style="fill:#b31e14;fill-opacity:1;fill-rule:nonzero;stroke:none;stroke-width:0.26788038"
         inkscape:connector-curvature="0" />
      <path
         id="path9460"
         d="m -32.420602,209.04793 c 0,-0.20927 0.07429,-0.38822 0.221837,-0.53681 0.148591,-0.14752 0.327527,-0.22183 0.536809,-0.22183 h 2.733218 c 0.209281,0 0.388215,0.0743 0.535761,0.22183 0.148587,0.14859 0.222884,0.32754 0.222884,0.53681 0,0.21034 -0.07429,0.38928 -0.222884,0.5368 -0.147546,0.1486 -0.32648,0.22291 -0.535761,0.22291 h -2.733218 c -0.209282,0 -0.388218,-0.0743 -0.536809,-0.22291 -0.147542,-0.14752 -0.221837,-0.32646 -0.221837,-0.5368 z m 0,0"
         style="fill:#d4852b;fill-opacity:1;fill-rule:nonzero;stroke:none;stroke-width:0.26788038"
         inkscape:connector-curvature="0" />
      <path
         id="path9462"
         d="m -47.600839,212.23635 c 0,-0.25218 0.08894,-0.46671 0.266833,-0.64461 0.17789,-0.17787 0.392403,-0.26683 0.644586,-0.26683 h 2.732171 c 0.251139,0 0.465652,0.089 0.643542,0.26683 0.17789,0.1779 0.266833,0.39243 0.266833,0.64461 0,0.25113 -0.08894,0.46565 -0.266833,0.64353 -0.17789,0.1779 -0.392403,0.26683 -0.643542,0.26683 h -2.732171 c -0.252183,0 -0.466696,-0.0889 -0.644586,-0.26683 -0.17789,-0.17788 -0.266833,-0.3924 -0.266833,-0.64353 z m 0,0"
         style="fill:#ffe614;fill-opacity:1;fill-rule:nonzero;stroke:none;stroke-width:0.26788038"
         inkscape:connector-curvature="0" />
      <path
         id="path9464"
         d="m -41.528535,212.23635 c 0,-0.25218 0.08894,-0.46671 0.266834,-0.64461 0.177889,-0.17787 0.392403,-0.26683 0.643542,-0.26683 h 7.287183 c 0.251138,0 0.465649,0.089 0.643541,0.26683 0.177888,0.1779 0.266833,0.39243 0.266833,0.64461 0,0.25113 -0.08894,0.46565 -0.266833,0.64353 -0.177892,0.1779 -0.392403,0.26683 -0.643541,0.26683 h -7.287183 c -0.251139,0 -0.465653,-0.0889 -0.643542,-0.26683 -0.177891,-0.17788 -0.266834,-0.3924 -0.266834,-0.64353 z m 0,0"
         style="fill:#ffe614;fill-opacity:1;fill-rule:nonzero;stroke:none;stroke-width:0.26788038"
         inkscape:connector-curvature="0" />
      <path
         id="path9466"
         d="m -47.600839,215.42369 c 0,-0.20927 0.07429,-0.38821 0.222884,-0.5368 0.147542,-0.14755 0.326479,-0.22184 0.536808,-0.22184 h 17.912409 c 0.209281,0 0.388215,0.0743 0.535761,0.22184 0.148587,0.14859 0.222884,0.32753 0.222884,0.5368 0,0.2093 -0.07429,0.38822 -0.222884,0.53681 -0.147546,0.14859 -0.32648,0.22185 -0.535761,0.22185 h -17.912409 c -0.210329,0 -0.389266,-0.0733 -0.536808,-0.22185 -0.148591,-0.14859 -0.222884,-0.32751 -0.222884,-0.53681 z m 0,0"
         style="fill:#3a4f97;fill-opacity:1;fill-rule:nonzero;stroke:none;stroke-width:0.26788038"
         inkscape:connector-curvature="0" />
      <path
         id="path9468"
         d="m -40.010197,218.45934 c 0,-0.20929 0.07429,-0.38824 0.221837,-0.53576 0.148591,-0.1486 0.327526,-0.22291 0.536809,-0.22291 h 4.250508 c 0.209282,0 0.388219,0.0743 0.536806,0.22291 0.147542,0.14752 0.221839,0.32647 0.221839,0.53576 0,0.21031 -0.07429,0.38926 -0.221839,0.53681 -0.148587,0.14857 -0.327524,0.22288 -0.536806,0.22288 h -4.250508 c -0.209283,0 -0.388218,-0.0743 -0.536809,-0.22288 -0.147542,-0.14755 -0.221837,-0.3265 -0.221837,-0.53681 z m 0,0"
         style="fill:#5c1478;fill-opacity:1;fill-rule:nonzero;stroke:none;stroke-width:0.26788038"
         inkscape:connector-curvature="0" />
      <path
         id="path9470"
         d="m -32.420602,218.45934 c 0,-0.20929 0.07429,-0.38824 0.221837,-0.53576 0.148591,-0.1486 0.327527,-0.22291 0.536809,-0.22291 h 2.733218 c 0.209281,0 0.388215,0.0743 0.535761,0.22291 0.148587,0.14752 0.222884,0.32647 0.222884,0.53576 0,0.21031 -0.07429,0.38926 -0.222884,0.53681 -0.147546,0.14857 -0.32648,0.22288 -0.535761,0.22288 h -2.733218 c -0.209282,0 -0.388218,-0.0743 -0.536809,-0.22288 -0.147542,-0.14755 -0.221837,-0.3265 -0.221837,-0.53681 z m 0,0"
         style="fill:#5c1478;fill-opacity:1;fill-rule:nonzero;stroke:none;stroke-width:0.26788038"
         inkscape:connector-curvature="0" />
      <path
         id="path9472"
         d="m -30.902264,212.23635 c 0,-0.25218 0.08894,-0.46671 0.266832,-0.64461 0.177891,-0.17787 0.392407,-0.26683 0.643545,-0.26683 h 0.910372 c 0.252185,0 0.466697,0.089 0.644587,0.26683 0.17789,0.1779 0.266835,0.39243 0.266835,0.64461 0,0.25113 -0.08894,0.46565 -0.266835,0.64353 -0.17789,0.1779 -0.392402,0.26683 -0.644587,0.26683 h -0.910372 c -0.251138,0 -0.465654,-0.0889 -0.643545,-0.26683 -0.177887,-0.17788 -0.266832,-0.3924 -0.266832,-0.64353 z m 0,0"
         style="fill:#457838;fill-opacity:1;fill-rule:nonzero;stroke:none;stroke-width:0.26788038"
         inkscape:connector-curvature="0" />
    </g>
  </g>
</svg>
